HIERARCHY
ROOT Hips
{
	OFFSET 0.000000 0.000000 0.000000 
	CHANNELS 6 Xposition Yposition Zposition Zrotation Xrotation Yrotation
	JOINT LeftUpLeg
	{
		OFFSET 2.390000 -0.997500 0.003131 
		CHANNELS 3 Zrotation Xrotation Yrotation
		JOINT LeftUpLegRoll
		{
			OFFSET -0.008228 -5.368025 -0.050000 
			CHANNELS 3 Zrotation Xrotation Yrotation
			JOINT LeftLeg
			{
				OFFSET 0.008228 -5.304475 -0.040000 
				CHANNELS 3 Zrotation Xrotation Yrotation
				JOINT LeftLegRoll
				{
					OFFSET 0.008266 -8.023550 -0.789272 
					CHANNELS 3 Zrotation Xrotation Yrotation
					JOINT LeftFoot
					{
						OFFSET -0.008285 -2.447005 -0.176461 
						CHANNELS 3 Zrotation Xrotation Yrotation
						End Site
						{
							OFFSET -0.006362 -1.603547 3.533050 
						}
					}
				}
			}
		}
	}
	JOINT RightUpLeg
	{
		OFFSET -2.390000 -0.997500 0.003131 
		CHANNELS 3 Zrotation Xrotation Yrotation
		JOINT RightUpLegRoll
		{
			OFFSET 0.007500 -5.367500 -0.050000 
			CHANNELS 3 Zrotation Xrotation Yrotation
			JOINT RightLeg
			{
				OFFSET -0.007500 -5.305000 -0.040000 
				CHANNELS 3 Zrotation Xrotation Yrotation
				JOINT RightLegRoll
				{
					OFFSET 0.005000 -8.024050 -0.790258 
					CHANNELS 3 Zrotation Xrotation Yrotation
					JOINT RightFoot
					{
						OFFSET 0.020000 -2.446472 -0.175476 
						CHANNELS 3 Zrotation Xrotation Yrotation
						End Site
						{
							OFFSET 0.010000 -1.603528 3.533050 
						}
					}
				}
			}
		}
	}
	JOINT Spine
	{
		OFFSET 0.000000 2.857200 0.095838 
		CHANNELS 3 Zrotation Xrotation Yrotation
		JOINT Spine1
		{
			OFFSET 0.000000 3.491675 -0.016748 
			CHANNELS 3 Zrotation Xrotation Yrotation
			JOINT Spine2
			{
				OFFSET 0.000000 2.811225 -0.017190 
				CHANNELS 3 Zrotation Xrotation Yrotation
				JOINT Spine3
				{
					OFFSET 0.000000 3.297825 -0.158152 
					CHANNELS 3 Zrotation Xrotation Yrotation
					JOINT LeftShoulder
					{
						OFFSET 2.247500 -0.945430 -0.255617 
						CHANNELS 3 Zrotation Xrotation Yrotation
						JOINT LeftArm
						{
							OFFSET 2.422500 0.192500 0.242500 
							CHANNELS 3 Zrotation Xrotation Yrotation
							JOINT LeftArmRoll
							{
								OFFSET 3.011150 -0.056125 -0.149282 
								CHANNELS 3 Zrotation Xrotation Yrotation
								JOINT LeftForeArm
								{
									OFFSET 3.544950 0.021691 -0.254337 
									CHANNELS 3 Zrotation Xrotation Yrotation
									JOINT LeftForeArmRoll
									{
										OFFSET 3.242425 0.024099 -0.017220 
										CHANNELS 3 Zrotation Xrotation Yrotation
										End Site
										{
											OFFSET 3.371325 0.031393 -0.007218 
										}
									}
								}
							}
						}
					}
					JOINT RightShoulder
					{
						OFFSET -2.247500 -0.945430 -0.255617 
						CHANNELS 3 Zrotation Xrotation Yrotation
						JOINT RightArm
						{
							OFFSET -2.422500 0.192500 0.242500 
							CHANNELS 3 Zrotation Xrotation Yrotation
							JOINT RightArmRoll
							{
								OFFSET -3.062100 -0.062702 -0.132500 
								CHANNELS 3 Zrotation Xrotation Yrotation
								JOINT RightForeArm
								{
									OFFSET -3.498150 0.035499 -0.338573 
									CHANNELS 3 Zrotation Xrotation Yrotation
									JOINT RightForeArmRoll
									{
										OFFSET -3.278950 0.026904 0.120309 
										CHANNELS 3 Zrotation Xrotation Yrotation
										End Site
										{
											OFFSET -3.349925 0.018716 0.058049 
										}
									}
								}
							}
						}
					}
					JOINT Neck
					{
						OFFSET 0.000000 1.108613 -0.101302 
						CHANNELS 3 Zrotation Xrotation Yrotation
						End Site
						{
							OFFSET 0.000000 1.617325 0.410885 
						}
					}
				}
			}
		}
	}
}
MOTION
Frames: 14
Frame Time: 0.041667
-0.145443 23.891624 -24.866976 0.057680 -0.762630 -1.024570 -4.762700 6.888420 -3.554010 0.000000 -0.000000 0.000000 -1.378270 5.244350 -0.063137 0.000000 -0.000000 0.000000 11.056100 -5.567290 3.000060 0.297255 6.465660 -2.053240 0.000000 0.000000 0.000000 2.370260 12.890500 -0.565318 -0.000000 0.000000 0.000000 -5.787080 -10.072700 -1.284950 0.959210 1.226140 -0.156707 -0.000000 0.000000 -0.000000 0.000000 0.000000 -0.000000 0.000000 -0.000000 0.000000 -15.242800 -1.714270 -3.443220 -76.405098 42.613998 26.051399 0.000000 -0.000000 0.000000 6.375810 -18.067301 -18.425800 -0.000000 0.000000 -0.000000 16.910000 1.024990 0.433727 67.926697 58.539902 -9.373210 -0.000000 0.000000 0.000000 -16.562201 -12.047000 19.939899 -0.000000 0.000000 0.000000 0.000000 0.000000 0.000000 
0.130225 23.809099 -24.462975 0.169909 -3.418190 -1.463280 -5.734890 12.133600 -2.551670 0.000000 -0.000000 0.000000 -1.265350 1.979830 -0.182553 0.000000 -0.000000 0.000000 11.564800 -5.356730 3.239110 -2.201480 5.136950 0.384642 0.000000 0.000000 0.000000 5.674130 22.283800 -1.738300 -0.000000 0.000000 0.000000 -6.707220 -9.089020 -1.987790 1.939940 1.517290 -0.496353 -0.000000 0.000000 -0.000000 0.000000 0.000000 -0.000000 0.000000 -0.000000 0.000000 -15.215100 -1.698720 -3.351920 -75.121101 43.491100 24.780500 0.000000 -0.000000 0.000000 6.623820 -18.015800 -18.726801 -0.000000 0.000000 -0.000000 16.820000 1.011220 0.512832 68.689301 58.182899 -11.115000 -0.000000 0.000000 0.000000 -16.591600 -12.904400 20.532301 -0.000000 0.000000 0.000000 0.000000 0.000000 0.000000 
0.400975 23.726101 -24.101151 -0.606406 -5.759040 -2.140520 -5.929830 16.050600 -0.412147 0.000000 -0.000000 0.000000 -1.123500 1.809520 -0.234046 0.000000 -0.000000 0.000000 10.935800 -6.850080 3.146570 -5.711750 1.022350 3.494900 0.000000 0.000000 0.000000 14.592500 34.145000 -7.120280 -0.000000 0.000000 0.000000 -7.740720 -3.554930 -2.045430 3.826170 1.810690 -1.197560 -0.000000 0.000000 -0.000000 0.000000 0.000000 -0.000000 0.000000 -0.000000 0.000000 -15.273700 -1.702870 -3.348690 -73.007698 44.765400 23.063499 0.000000 -0.000000 0.000000 7.102470 -18.025600 -19.420500 -0.000000 0.000000 -0.000000 16.512100 0.974990 0.677645 69.739998 57.663399 -13.217100 -0.000000 0.000000 0.000000 -16.687300 -13.395800 20.925100 -0.000000 0.000000 0.000000 0.000000 0.000000 0.000000 
0.493708 23.939375 -24.128750 -2.219920 2.771860 -2.051250 -3.636560 6.885040 -0.321704 0.000000 -0.000000 0.000000 -1.310980 2.141010 -0.256405 0.000000 -0.000000 0.000000 9.221320 -6.061650 2.331840 -5.758860 -14.885300 4.607000 0.000000 0.000000 0.000000 21.914101 42.845402 -12.018300 -0.000000 0.000000 0.000000 -8.670000 3.216420 -2.004380 5.462590 0.636607 -0.859532 -0.000000 0.000000 -0.000000 0.000000 0.000000 -0.000000 0.000000 -0.000000 0.000000 -15.085700 -1.741230 -3.686670 -70.262497 46.069901 20.893900 0.000000 -0.000000 0.000000 7.965650 -17.606800 -20.156401 -0.000000 0.000000 -0.000000 16.233101 0.965390 0.637494 70.545799 56.697498 -15.183700 -0.000000 0.000000 0.000000 -16.203100 -14.621400 21.332399 -0.000000 0.000000 0.000000 0.000000 0.000000 0.000000 
0.512873 24.036051 -23.870325 -4.391650 5.325680 -1.861110 -1.152430 4.863250 0.135931 0.000000 -0.000000 0.000000 -1.260630 2.073760 -0.191431 0.000000 -0.000000 0.000000 7.468220 -6.504310 1.426000 -4.296580 -22.859501 4.827860 0.000000 0.000000 0.000000 26.195499 47.402699 -15.498800 -0.000000 0.000000 0.000000 -9.192650 5.125110 -1.991310 6.686790 0.493527 -0.730797 -0.000000 0.000000 -0.000000 0.000000 0.000000 -0.000000 0.000000 -0.000000 0.000000 -14.820900 -1.759370 -3.966660 -67.505203 47.159698 18.699301 0.000000 -0.000000 0.000000 8.986580 -17.005501 -20.859301 -0.000000 0.000000 -0.000000 15.945600 0.936543 0.731522 71.575897 55.109402 -17.315599 -0.000000 0.000000 0.000000 -14.670900 -17.448900 22.175400 -0.000000 0.000000 0.000000 0.000000 0.000000 0.000000 
0.562865 24.033026 -23.428600 -5.708820 5.039630 -2.020120 0.023893 6.744580 0.531954 0.000000 -0.000000 0.000000 -0.903003 1.401040 -0.023446 0.000000 -0.000000 0.000000 6.290170 -7.239640 0.893473 -3.689140 -26.733601 3.995870 0.000000 0.000000 0.000000 27.647100 48.807400 -16.833099 -0.000000 0.000000 0.000000 -9.433640 4.411300 -2.083960 7.536310 0.727541 -0.765210 -0.000000 0.000000 -0.000000 0.000000 0.000000 -0.000000 0.000000 -0.000000 0.000000 -14.366700 -1.724000 -3.969860 -64.671303 48.668201 16.566099 0.000000 -0.000000 0.000000 10.524300 -16.910999 -22.701000 -0.000000 0.000000 -0.000000 15.459200 0.902405 0.786280 73.249100 53.649300 -20.321400 -0.000000 0.000000 0.000000 -13.387000 -19.768299 22.985100 -0.000000 0.000000 0.000000 0.000000 0.000000 0.000000 
0.595075 23.998224 -22.930799 -6.122010 5.386400 -2.219520 0.080622 8.294320 1.035580 0.000000 -0.000000 0.000000 -0.542238 0.599631 0.210840 0.000000 -0.000000 0.000000 4.642560 -7.796170 0.144858 -4.258470 -30.999701 1.408440 0.000000 0.000000 0.000000 25.406500 46.734299 -15.138600 -0.000000 0.000000 0.000000 -9.328580 4.433740 -2.117550 7.620270 1.007100 -0.583896 -0.000000 0.000000 -0.000000 0.000000 0.000000 -0.000000 0.000000 -0.000000 0.000000 -13.791800 -1.670350 -3.914290 -62.103699 50.668900 15.391700 0.000000 -0.000000 0.000000 11.612500 -18.257500 -25.610001 -0.000000 0.000000 -0.000000 14.997000 0.887493 0.681817 75.215599 53.112900 -23.751499 -0.000000 0.000000 0.000000 -13.288200 -20.237101 23.268900 -0.000000 0.000000 0.000000 0.000000 0.000000 0.000000 
0.589222 23.918024 -22.386425 -5.681150 5.413040 -2.598070 -0.647652 10.533800 1.644200 0.000000 -0.000000 0.000000 -0.026168 -0.557504 0.395924 0.000000 -0.000000 0.000000 2.876230 -8.101060 -0.761964 -4.550080 -33.684101 -0.719694 0.000000 0.000000 0.000000 20.551701 41.405201 -11.420300 -0.000000 0.000000 0.000000 -8.369540 4.519270 -1.956060 6.919970 1.339730 -0.461033 -0.000000 0.000000 -0.000000 0.000000 0.000000 -0.000000 0.000000 -0.000000 0.000000 -13.147200 -1.608870 -3.842870 -57.784801 53.357201 13.245200 0.000000 -0.000000 0.000000 11.724300 -21.043699 -29.239000 -0.000000 0.000000 -0.000000 14.663700 0.882324 0.556692 77.604301 52.880901 -28.198601 -0.000000 0.000000 0.000000 -13.461600 -20.440701 23.647900 -0.000000 0.000000 0.000000 0.000000 0.000000 0.000000 
0.514070 23.790026 -21.765175 -4.870670 5.601420 -3.238610 -1.550370 12.392800 2.829250 0.000000 -0.000000 0.000000 0.271602 -1.632690 0.466751 0.000000 -0.000000 0.000000 0.797478 -8.325910 -1.694200 -3.999310 -35.128601 -1.917030 0.000000 0.000000 0.000000 15.394500 34.957699 -7.689550 -0.000000 0.000000 0.000000 -5.846470 5.015340 -1.487410 5.736760 1.417170 -0.325723 -0.000000 0.000000 -0.000000 0.000000 0.000000 -0.000000 0.000000 -0.000000 0.000000 -12.442600 -1.540960 -3.760660 -54.462200 55.526699 11.365700 0.000000 -0.000000 0.000000 12.145900 -22.096901 -31.364201 -0.000000 0.000000 -0.000000 14.389800 0.883470 0.405133 79.481697 52.444698 -31.478399 -0.000000 0.000000 0.000000 -13.309000 -21.132601 24.171400 -0.000000 0.000000 0.000000 0.000000 0.000000 0.000000 
0.394852 23.620874 -20.996725 -4.104040 5.632140 -3.200520 -2.173190 14.625700 3.214420 0.000000 -0.000000 0.000000 0.482586 -2.483280 0.447556 0.000000 -0.000000 0.000000 -0.709375 -8.157840 -2.406840 -1.819780 -35.699501 -1.760420 0.000000 0.000000 0.000000 8.550340 28.524200 -3.597910 -0.000000 0.000000 0.000000 -1.006520 5.281720 -0.843442 4.515010 1.375550 -0.391069 -0.000000 0.000000 -0.000000 0.000000 0.000000 -0.000000 0.000000 -0.000000 0.000000 -11.750400 -1.481390 -3.719380 -50.891399 57.074902 9.131900 0.000000 -0.000000 0.000000 13.308100 -21.920799 -32.396400 -0.000000 0.000000 -0.000000 14.196700 0.894492 0.198989 81.622101 51.691002 -34.993198 -0.000000 0.000000 0.000000 -13.493400 -20.837999 24.080900 -0.000000 0.000000 0.000000 0.000000 0.000000 0.000000 
0.228000 23.458275 -20.141125 -3.639920 5.488460 -2.906650 -2.167860 17.122200 2.826500 0.000000 -0.000000 0.000000 0.487456 -2.534620 0.368818 0.000000 -0.000000 0.000000 -1.921690 -7.408660 -2.797840 0.188549 -34.707401 -0.341444 0.000000 0.000000 0.000000 4.607150 22.045601 -1.589660 -0.000000 0.000000 0.000000 3.087420 5.101750 -0.299539 3.506150 1.265500 -0.540767 -0.000000 0.000000 -0.000000 0.000000 0.000000 -0.000000 0.000000 -0.000000 0.000000 -11.335500 -1.443260 -3.700290 -48.478199 58.405102 8.134810 0.000000 -0.000000 0.000000 14.228200 -21.625401 -32.917301 -0.000000 0.000000 -0.000000 14.027300 0.882851 0.223747 83.356300 50.873699 -37.710300 -0.000000 0.000000 0.000000 -13.561500 -20.006701 23.306900 -0.000000 0.000000 0.000000 0.000000 0.000000 0.000000 
0.023025 23.325275 -19.156124 -3.603570 5.114740 -2.417240 -1.431340 19.671000 1.648250 0.000000 -0.000000 0.000000 0.211222 -1.599160 0.288530 0.000000 -0.000000 0.000000 -2.418500 -5.447150 -2.853900 1.625270 -32.426800 1.273960 0.000000 0.000000 0.000000 3.486300 18.049999 -1.124200 -0.000000 0.000000 0.000000 2.104040 4.663350 -0.351265 3.051210 1.178240 -0.638200 -0.000000 0.000000 -0.000000 0.000000 0.000000 -0.000000 0.000000 -0.000000 0.000000 -11.081000 -1.424690 -3.706800 -47.077999 59.242599 7.582050 0.000000 -0.000000 0.000000 13.933800 -21.718700 -32.751701 -0.000000 0.000000 -0.000000 13.817800 0.841654 0.476472 85.388000 49.778599 -40.435200 -0.000000 0.000000 0.000000 -12.926600 -19.949100 22.605000 -0.000000 0.000000 0.000000 0.000000 0.000000 0.000000 
-0.243107 23.264099 -18.010775 -4.175960 4.434610 -1.936860 0.366197 21.990101 -0.509717 0.000000 -0.000000 0.000000 -0.200050 -0.181821 0.274638 0.000000 -0.000000 0.000000 -2.927570 -1.530770 -2.668070 3.628510 -30.470600 3.639030 0.000000 0.000000 0.000000 3.957810 19.048901 -1.375540 -0.000000 0.000000 0.000000 -2.200840 4.885300 -1.369750 2.975080 1.116910 -0.597720 -0.000000 0.000000 -0.000000 0.000000 0.000000 -0.000000 0.000000 -0.000000 0.000000 -11.079600 -1.411690 -3.615030 -47.540100 59.307098 8.139680 0.000000 -0.000000 0.000000 13.551400 -21.278601 -31.699600 -0.000000 0.000000 -0.000000 13.741800 0.812834 0.689647 87.790802 48.703098 -43.186501 -0.000000 0.000000 0.000000 -12.025000 -19.926500 21.610001 -0.000000 0.000000 0.000000 0.000000 0.000000 0.000000 
-0.543675 23.354376 -16.807625 -5.128070 3.836640 -2.032130 2.523110 23.736500 -3.145620 0.000000 -0.000000 0.000000 -0.751599 1.357630 0.306827 0.000000 -0.000000 0.000000 -4.395380 4.915210 -2.398060 5.559140 -28.631701 6.005350 0.000000 0.000000 0.000000 5.124250 21.682100 -1.901710 -0.000000 0.000000 0.000000 -6.516180 5.025420 -2.469280 2.989980 0.986609 -0.435508 -0.000000 0.000000 -0.000000 0.000000 0.000000 -0.000000 0.000000 -0.000000 0.000000 -11.439900 -1.396420 -3.291510 -50.291801 57.916100 10.555800 0.000000 -0.000000 0.000000 13.370400 -20.453300 -30.328400 -0.000000 0.000000 -0.000000 13.835200 0.778952 0.991246 89.014297 48.401100 -44.251598 -0.000000 0.000000 0.000000 -11.431300 -18.626301 19.815201 -0.000000 0.000000 0.000000 0.000000 0.000000 0.000000 
